<?xml version="1.0" encoding="UTF-8"?>
<svg width="179px" height="55px" viewBox="0 0 179 55" version="1.1" xmlns="http://www.w3.org/2000/svg" xmlns:xlink="http://www.w3.org/1999/xlink">
    <!-- Generator: sketchtool 52 (66869) - http://www.bohemiancoding.com/sketch -->
    <title>FF58C7AC-5B25-4D38-B149-40DA875C4702</title>
    <desc>Created with sketchtool.</desc>
    <g id="Страницы" stroke="none" stroke-width="1" fill="none" fill-rule="evenodd">
        <g id="Энвибокс-0-главная" transform="translate(-67.000000, -46.000000)">
            <g id="Group-22" transform="translate(-48.000000, -285.000000)">
                <g id="logotype-envybox-horizontal-white" transform="translate(115.000000, 331.000000)">
                    <path d="M60.225703,32.8088278 L53.6031593,32.8367205 L53.6031593,27.0479055 L61.5727713,27.0479055 L61.5727713,22.8597043 L53.6031593,22.8597043 L53.6031593,17.2918855 L59.2994579,17.2639928 L59.2994579,19.4246069 L63.72461,19.4246069 L63.72461,15.8650649 C63.72461,14.0327269 62.7875189,13.1015387 60.9328596,13.1015387 L46.8309413,13.1015387 L46.8309413,17.2940311 L48.9220425,17.2940311 L48.9220425,34.2356484 C48.9220425,36.0679864 49.8721487,36.997029 51.7441616,36.997029 L61.8027057,36.997029 C63.6530266,36.997029 64.594456,36.0679864 64.594456,34.2356484 L64.594456,30.6803977 L60.1975035,30.6803977 L60.225703,32.8088278 Z M83.8304184,25.9740353 C83.8304184,21.3974814 81.7132868,19.0802389 77.5354227,19.0802389 C75.1102659,19.0802389 73.2772985,20.0693581 72.0668892,21.2902016 C71.8803387,20.4233813 71.2447654,19.4621548 69.3423839,19.4621548 L65.6178809,19.4621548 L65.6178809,23.5538042 L67.6373988,23.4551069 C67.6373988,23.4551069 67.6439064,23.4744172 67.6439064,23.5237659 L67.6439064,36.9981018 L72.2295786,36.9981018 L72.2295786,28.7375615 C72.2295786,27.9050707 72.3098388,27.2935761 72.4920509,26.7764878 C73.0950863,24.7016975 74.8369476,23.3628463 76.9258797,23.3628463 C78.6568951,23.3628463 79.242577,24.1974827 79.242577,26.6734992 L79.242577,34.2367212 C79.242577,36.0669137 80.179668,36.9981018 82.0343273,36.9981018 L85.8542747,36.9981018 L85.8542747,32.9043068 L83.8304184,32.9321995 L83.8304184,25.9740353 Z M103.604991,23.5533751 L102.424517,23.5533751 C102.142522,23.5533751 102.129507,23.5941414 102.0948,23.6928388 L96.9212763,36.9976727 L92.3139121,36.9976727 L87.1056817,23.6928388 C87.0774822,23.6091606 87.0536211,23.5877046 87.0536211,23.5834134 C87.0536211,23.5834134 86.9993913,23.5533751 86.8106715,23.5533751 L85.754275,23.5533751 L85.754275,19.4617257 L88.0948333,19.4617257 C89.8453714,19.4617257 90.6718336,20.0088524 91.2575155,21.5536807 L94.68267,30.5909264 L98.0731173,21.5558263 C98.6587992,20.0088524 99.4874306,19.4617257 101.237969,19.4617257 L103.604991,19.4617257 L106.175484,19.4608674 C107.791532,19.4608674 108.583287,20.0037029 109.203676,21.5378033 L112.776336,30.3647807 L116.088692,21.554968 C116.624483,20.0337413 117.448776,19.4608674 119.121223,19.4608674 L121.724253,19.4608674 L121.724253,23.5546625 L120.568074,23.5546625 C120.366339,23.5546625 120.318617,23.5804096 120.318617,23.5804096 C120.318617,23.5804096 120.279571,23.6125935 120.216665,23.7520572 L113.830563,39.4342103 C112.71126,42.1290775 110.542068,43.6739058 107.8783,43.6739058 C105.16681,43.6739058 103.568115,41.9102268 103.50087,41.835131 L103.153799,41.4446327 L105.524726,37.3401097 L105.999779,38.7798038 C106.203683,38.9879265 106.893487,39.5457812 107.71778,39.5457812 C108.919512,39.5457812 109.600638,38.3721408 109.897818,37.6726769 L110.516037,36.2093812 L105.080042,23.7520572 C105.017135,23.6147391 104.980259,23.5739728 104.969413,23.5696816 C104.969413,23.5696816 104.917352,23.5546625 104.761171,23.5546625 L103.604991,23.5546625 L103.604991,23.5533751 Z M132.092992,23.235398 C134.401013,23.235398 135.951985,25.2544028 135.951985,28.2625268 C135.951985,31.264214 134.361967,33.2853644 131.995378,33.2853644 C129.342456,33.2853644 128.136386,30.697777 128.136386,28.2904195 C128.136386,25.1278127 129.615775,23.235398 132.092992,23.235398 M132.702535,19.0793807 C130.613603,19.0793807 129.166752,19.8024461 128.236168,20.5426764 L128.236168,15.8631339 C128.236168,14.0329415 127.283893,13.1017533 125.409711,13.1017533 L121.622301,13.1017533 L121.622301,17.1976939 L123.63965,17.0989966 C123.63965,17.0989966 123.643989,17.1183069 123.643989,17.1698012 L123.643989,36.9972436 L128.073479,36.9972436 L128.073479,35.8772431 C129.001893,36.6346381 130.424883,37.3791595 132.444401,37.3791595 C137.249162,37.3791595 140.604902,33.615786 140.604902,28.2281973 C140.604902,22.7569303 137.429205,19.0793807 132.702535,19.0793807 M151.552164,33.2531805 C148.784275,33.2531805 146.697512,31.0796929 146.697512,28.1981589 C146.697512,25.3488089 148.784275,23.203214 151.552164,23.203214 C154.320054,23.203214 156.406816,25.3488089 156.406816,28.1981589 C156.406816,31.0796929 154.320054,33.2531805 151.552164,33.2531805 M151.552164,19.0815262 C146.148707,19.0815262 142.074964,22.9993825 142.074964,28.1981589 C142.074964,33.4312649 146.148707,37.3791595 151.552164,37.3791595 C156.884039,37.3791595 161.059734,33.3454411 161.059734,28.1981589 C161.059734,23.0852063 156.884039,19.0815262 151.552164,19.0815262 M172.667732,28.010634 L175.496358,23.8288695 C175.650371,23.6186012 175.724124,23.5542334 176.249068,23.5542334 L177.917177,23.5542334 L177.917177,19.4625839 L175.190502,19.4625839 C173.411765,19.4625839 172.693762,19.8638101 171.70461,21.4258032 L169.808736,24.440364 L167.910693,21.4236576 C166.921542,19.8638101 166.205708,19.4625839 164.426971,19.4625839 L161.695958,19.4625839 L161.695958,23.5542334 L163.366236,23.5542334 C163.884673,23.5542334 163.947579,23.6121644 164.103761,23.8374519 L166.947572,28.0127795 L160.969278,36.9963854 L166.275122,36.9963854 L169.808736,31.5551567 L173.340181,36.9963854 L178.643856,36.9963854 L172.667732,28.010634 Z" id="Envybox" fill="#FFFFFF"></path>
                    <g id="logo-icecream" transform="translate(0.000000, 0.487805)">
                        <path d="M21.7473379,45.2544784 L19.6654628,50.7358228 C18.9973961,52.4947679 17.0091129,53.3868866 15.2245081,52.7284256 C14.2951139,52.3855094 13.5605259,51.6647731 13.2083787,50.7503132 L4.54820516,28.2614719 C3.95654219,26.7250345 4.74060316,25.0067647 6.29945436,24.4236089 C6.64169045,24.2955807 7.00469688,24.2299652 7.37075493,24.2299652 L25.3788857,24.2299652 C27.0462435,24.2299652 28.3979041,25.562191 28.3979041,27.2055749 C28.3979041,27.5618161 28.333001,27.9151626 28.2062845,28.2487929 L28.2062845,28.2487929 C27.7644595,29.4120688 26.6496182,30.1811847 25.4052629,30.1811847 L14.3305902,30.1811847 C13.2587173,30.1811847 12.3897926,31.0376156 12.3897926,32.0940767 C12.3897926,33.1505377 13.2587173,34.0069686 14.3305902,34.0069686 L22.394416,34.0069686 C23.8030308,34.0069686 24.9449387,35.1488765 24.9449387,36.5574913 L24.9449387,36.5574913 C24.9449387,37.9661061 23.8030308,39.1080139 22.394416,39.1080139 L16.9183202,39.1080139 C15.8464473,39.1080139 14.9775227,39.9644449 14.9775227,41.0209059 C14.9775227,42.077367 15.8464473,42.9337979 16.9183202,42.9337979 L20.1463278,42.9337979 C21.0921702,42.9337979 21.858927,43.7005547 21.858927,44.6463971 C21.858927,44.8541819 21.8211146,45.0602323 21.7473379,45.2544784 Z" id="Combined-Shape" fill="#FFE53B"></path>
                        <g id="Group-3" transform="translate(0.469325, 0.000000)">
                            <path d="M14.1749431,13.6621222 C14.1749431,17.5106432 11.010893,20.6312333 7.11087098,20.6312333 C3.20875217,20.6312333 0.0447020333,17.5106432 0.0447020333,13.6621222 C0.0447020333,9.81566917 3.20875217,6.69507907 7.11087098,6.69507907 C11.010893,6.69507907 14.1749431,9.81566917 14.1749431,13.6621222" id="Fill-550" fill="#40BDFF"></path>
                            <path d="M26.5760828,9.88763507 C26.5760828,15.2561254 22.1620248,19.6050989 16.71788,19.6050989 C11.2716373,19.6050989 6.85757923,15.2561254 6.85757923,9.88763507 C6.85757923,4.51914475 11.2716373,0.168103285 16.71788,0.168103285 C22.1620248,0.168103285 26.5760828,4.51914475 26.5760828,9.88763507" id="Fill-551" fill="#FF5E86"></path>
                            <path d="M31.4201696,14.710384 C31.4201696,17.9798691 28.7320899,20.6310265 25.4170712,20.6310265 C22.1020524,20.6310265 19.411876,17.9798691 19.411876,14.710384 C19.411876,11.438831 22.1020524,8.78974157 25.4170712,8.78974157 C28.7320899,8.78974157 31.4201696,11.438831 31.4201696,14.710384" id="Fill-552" fill="#FF92BB"></path>
                        </g>
                    </g>
                    <path d="M48.8085751,48.9056432 C48.8085751,50.8179101 50.1469916,52.3144668 52.1967344,52.3144668 C53.3666789,52.3144668 54.1903198,51.8340905 54.7518932,51.2798103 L54.2558367,50.623912 C53.722342,51.1504782 52.964218,51.4738084 52.2248131,51.4738084 C50.6898459,51.4738084 49.7632498,50.2821059 49.7632498,48.8964052 C49.7632498,47.5199426 50.6711268,46.4021441 52.206094,46.4021441 C52.8893416,46.4021441 53.6287465,46.6885222 54.1154434,47.1134704 L54.5834212,46.4298581 C53.9469714,45.8293879 53.0203753,45.5707237 52.1686557,45.5707237 C50.203149,45.5707237 48.8085751,47.0118524 48.8085751,48.9056432 Z M55.3509048,49.8571577 C55.3509048,48.443743 56.4927706,47.4183246 57.8967041,47.4183246 C59.309997,47.4183246 60.4518629,48.443743 60.4518629,49.8571577 C60.4518629,51.2798103 59.309997,52.3144668 57.9060636,52.3144668 C56.4927706,52.3144668 55.3509048,51.2798103 55.3509048,49.8571577 Z M56.2775009,49.8571577 C56.2775009,50.8363861 57.0075462,51.5384744 57.9060636,51.5384744 C58.7952214,51.5384744 59.5346264,50.8363861 59.5346264,49.8571577 C59.5346264,48.8871672 58.7952214,48.1943169 57.9060636,48.1943169 C57.0075462,48.1943169 56.2775009,48.8871672 56.2775009,49.8571577 Z M61.2380656,49.8663957 C61.2380656,48.379077 62.2676167,47.4183246 63.6153928,47.4183246 C64.9538093,47.4183246 65.6651356,48.406791 65.6651356,49.6077315 C65.6651356,49.7278256 65.6464165,49.8571577 65.6276974,49.9864897 L62.1833807,49.9864897 C62.2301785,50.9934322 62.9602239,51.5384744 63.8119435,51.5384744 C64.3173595,51.5384744 64.8321351,51.3260003 65.2065173,50.9934322 L65.5902591,51.6493305 C65.1316409,52.0650407 64.4109551,52.3144668 63.7557861,52.3144668 C62.2676167,52.3144668 61.2380656,51.2520963 61.2380656,49.8663957 Z M62.2114594,49.3398294 L64.7478991,49.3398294 C64.7198204,48.5361231 64.2144044,48.1111749 63.5966737,48.1111749 C62.894707,48.1111749 62.3424932,48.5638371 62.2114594,49.3398294 Z M67.6867997,51.4645704 L69.7833403,51.4645704 L69.7833403,48.2589829 L68.3606877,48.2589829 L68.3606877,48.5084091 C68.3606877,49.2104974 68.2858113,50.54077 67.6867997,51.4645704 Z M66.1705516,51.4645704 L66.7508441,51.4645704 C67.4153726,50.568484 67.490249,49.1088793 67.490249,48.388315 L67.490249,47.5291806 L70.6912172,47.5291806 L70.6912172,51.4645704 L71.3651052,51.4645704 L71.3651052,53.3121712 L70.5321047,53.3121712 L70.5321047,52.2036107 L67.0222712,52.2036107 L67.0222712,53.3121712 L66.1705516,53.3121712 L66.1705516,51.4645704 Z M72.31978,52.2036107 L73.1902187,52.2036107 L75.2399614,49.4137335 C75.3897143,49.1920214 75.6237032,48.8779292 75.6517819,48.7947872 L75.670501,48.7947872 C75.670501,48.8686912 75.6424224,49.1920214 75.6424224,49.4137335 L75.6424224,52.2036107 L76.5222206,52.2036107 L76.5222206,47.5291806 L75.6424224,47.5291806 L73.6020391,50.3190579 C73.4429267,50.54077 73.2182973,50.8641001 73.1808591,50.9472421 L73.16214,50.9472421 C73.1714996,50.9010521 73.1902187,50.568484 73.1902187,50.3190579 L73.1902187,47.5291806 L72.31978,47.5291806 L72.31978,52.2036107 Z M77.9167945,52.2036107 L78.8246714,52.2036107 L78.8246714,50.1989638 L81.2207178,50.1989638 L81.2207178,52.2036107 L82.1285947,52.2036107 L82.1285947,47.5291806 L81.2207178,47.5291806 L81.2207178,49.4322095 L78.8246714,49.4322095 L78.8246714,47.5291806 L77.9167945,47.5291806 L77.9167945,52.2036107 Z M83.0551908,52.2036107 L84.1502588,50.651626 C84.2532139,50.4853419 84.3655286,50.3652479 84.3655286,50.3652479 L84.3655286,50.3560099 C83.8226744,50.2082018 83.3359774,49.7093496 83.3359774,48.9980233 C83.3359774,48.0372708 84.0285846,47.5291806 85.0300571,47.5291806 L86.9206874,47.5291806 L86.9206874,52.2036107 L86.0128105,52.2036107 L86.0128105,50.513056 L85.2172482,50.513056 L84.0566633,52.2036107 L83.0551908,52.2036107 Z M85.2266078,49.8571577 L86.0128105,49.8571577 L86.0128105,48.1481269 L85.2546864,48.1481269 C84.6463153,48.1481269 84.2532139,48.388315 84.2532139,48.9887853 C84.2532139,49.5707795 84.674394,49.8571577 85.2266078,49.8571577 Z M88.0157555,49.8663957 C88.0157555,48.379077 89.0453066,47.4183246 90.3930827,47.4183246 C91.7314992,47.4183246 92.4428255,48.406791 92.4428255,49.6077315 C92.4428255,49.7278256 92.4241064,49.8571577 92.4053873,49.9864897 L88.9610706,49.9864897 C89.0078684,50.9934322 89.7379138,51.5384744 90.5896334,51.5384744 C91.0950494,51.5384744 91.609825,51.3260003 91.9842072,50.9934322 L92.367949,51.6493305 C91.9093308,52.0650407 91.188645,52.3144668 90.5334761,52.3144668 C89.0453066,52.3144668 88.0157555,51.2520963 88.0157555,49.8663957 Z M88.9891493,49.3398294 L91.525589,49.3398294 C91.4975103,48.5361231 90.9920943,48.1111749 90.3743636,48.1111749 C89.6723969,48.1111749 89.1201831,48.5638371 88.9891493,49.3398294 Z M94.6236021,52.2036107 L95.5221194,52.2036107 L95.5221194,48.295935 L97.1787609,48.295935 L97.1787609,47.5291806 L92.9763202,47.5291806 L92.9763202,48.295935 L94.6236021,48.295935 L94.6236021,52.2036107 Z M100.407808,52.2036107 L100.407808,47.5291806 L102.363955,47.5291806 C103.31863,47.5291806 103.94572,47.9448908 103.94572,48.7301212 C103.94572,49.1827834 103.702371,49.5707795 103.271832,49.7555396 L103.271832,49.7647776 C103.861484,49.9033477 104.170349,50.3560099 104.170349,50.8733381 C104.170349,51.7417105 103.459023,52.2036107 102.429472,52.2036107 L100.407808,52.2036107 Z M101.315685,49.5061135 L102.204842,49.5061135 C102.747697,49.5061135 103.019124,49.2289734 103.019124,48.7947872 C103.019124,48.369839 102.747697,48.1481269 102.176764,48.1481269 L101.315685,48.1481269 L101.315685,49.5061135 Z M101.315685,51.5754264 L102.289078,51.5754264 C102.944247,51.5754264 103.253113,51.2798103 103.253113,50.8456241 C103.253113,50.3837239 102.906809,50.1065838 102.279719,50.1065838 L101.315685,50.1065838 L101.315685,51.5754264 Z M107.305801,49.8663957 C107.305801,51.2705723 108.344711,52.3144668 109.84224,52.3144668 C110.581645,52.3144668 111.302331,52.0188506 111.732871,51.5661884 L111.367848,50.9102901 C111.002825,51.2890483 110.431892,51.5384744 109.907757,51.5384744 C108.925004,51.5384744 108.232397,50.8086721 108.232397,49.8571577 C108.232397,48.9056432 108.925004,48.1943169 109.879678,48.1943169 C110.375735,48.1943169 110.871791,48.416029 111.190016,48.7301212 L111.620556,48.1019369 C111.171297,47.6307987 110.46933,47.4183246 109.84224,47.4183246 C108.354071,47.4183246 107.305801,48.480695 107.305801,49.8663957 Z M112.294444,49.8663957 C112.294444,48.379077 113.323995,47.4183246 114.671771,47.4183246 C116.010188,47.4183246 116.721514,48.406791 116.721514,49.6077315 C116.721514,49.7278256 116.702795,49.8571577 116.684076,49.9864897 L113.239759,49.9864897 C113.286557,50.9934322 114.016602,51.5384744 114.868322,51.5384744 C115.373738,51.5384744 115.888513,51.3260003 116.262896,50.9934322 L116.646637,51.6493305 C116.188019,52.0650407 115.467333,52.3144668 114.812164,52.3144668 C113.323995,52.3144668 112.294444,51.2520963 112.294444,49.8663957 Z M113.267838,49.3398294 L115.804277,49.3398294 C115.776199,48.5361231 115.270783,48.1111749 114.653052,48.1111749 C113.951085,48.1111749 113.398872,48.5638371 113.267838,49.3398294 Z M117.610672,49.5153515 C117.610672,47.8432728 118.097369,46.8270923 119.744651,46.14348 L121.43873,45.4229157 L121.738236,46.161956 L119.922482,46.9102343 C118.977167,47.3351825 118.527908,47.8802248 118.462391,48.7763112 L118.48111,48.7763112 C118.90229,48.1481269 119.529381,47.9448908 120.156471,47.9448908 C121.345135,47.9448908 122.168776,48.7763112 122.168776,50.0973458 C122.168776,51.3906663 121.270258,52.3144668 119.931842,52.3144668 C118.331358,52.3144668 117.610672,51.1320022 117.610672,49.5153515 Z M118.555987,50.0973458 C118.555987,51.0211462 119.164358,51.5569504 119.894403,51.5569504 C120.643168,51.5569504 121.251539,51.0211462 121.251539,50.1158218 C121.251539,49.2012594 120.643168,48.6562171 119.931842,48.6562171 C119.12692,48.6562171 118.555987,49.2751634 118.555987,50.0973458 Z M122.992416,49.8663957 C122.992416,48.379077 124.021968,47.4183246 125.369744,47.4183246 C126.70816,47.4183246 127.419487,48.406791 127.419487,49.6077315 C127.419487,49.7278256 127.400767,49.8571577 127.382048,49.9864897 L123.937732,49.9864897 C123.984529,50.9934322 124.714575,51.5384744 125.566294,51.5384744 C126.07171,51.5384744 126.586486,51.3260003 126.960868,50.9934322 L127.34461,51.6493305 C126.885992,52.0650407 126.165306,52.3144668 125.510137,52.3144668 C124.021968,52.3144668 122.992416,51.2520963 122.992416,49.8663957 Z M123.96581,49.3398294 L126.50225,49.3398294 C126.474171,48.5361231 125.968755,48.1111749 125.351025,48.1111749 C124.649058,48.1111749 124.096844,48.5638371 123.96581,49.3398294 Z M130.339668,52.2498007 C131.734242,52.1758967 132.277096,51.0858122 132.277096,48.9703093 L132.277096,48.2682209 L133.67167,48.2682209 L133.67167,52.2036107 L134.579547,52.2036107 L134.579547,47.5291806 L131.406657,47.5291806 L131.406657,48.9703093 C131.406657,50.660864 131.032275,51.3444763 130.339668,51.4460944 L130.339668,52.2498007 Z M135.749491,53.1736011 L135.431267,53.8572135 C135.431267,53.8572135 135.815008,54.1435916 136.339143,54.1435916 C137.003672,54.1435916 137.593324,53.7740714 137.874111,53.0442691 L140.101685,47.5291806 L139.118932,47.5291806 L137.967706,50.596198 C137.88347,50.8363861 137.808594,51.1504782 137.808594,51.1504782 L137.789875,51.1504782 C137.789875,51.1504782 137.705639,50.8179101 137.612043,50.58696 L136.423379,47.5291806 L135.403188,47.5291806 L137.387414,52.1481827 L137.153425,52.6839869 C136.975593,53.1089351 136.666728,53.3768372 136.292346,53.3768372 C136.011559,53.3768372 135.749491,53.1736011 135.749491,53.1736011 Z M142.282462,50.577722 C142.750439,50.577722 143.265215,50.4206759 143.564721,50.2359158 L143.58344,50.2359158 C143.58344,50.2359158 143.57408,50.3837239 143.57408,50.513056 L143.57408,52.2036107 L144.481957,52.2036107 L144.481957,47.5291806 L143.57408,47.5291806 L143.57408,49.4691615 C143.37753,49.6077315 142.993788,49.8017296 142.52581,49.8017296 C141.748967,49.8017296 141.580495,49.3860194 141.580495,48.9241192 L141.580495,47.5291806 L140.691337,47.5291806 L140.691337,49.0534513 C140.691337,50.0511557 141.271629,50.577722 142.282462,50.577722 Z M145.885891,52.2036107 L152.00704,52.2036107 L152.00704,47.5291806 L151.136602,47.5291806 L151.136602,51.4276184 L149.386365,51.4276184 L149.386365,47.5291806 L148.506566,47.5291806 L148.506566,51.4276184 L146.756329,51.4276184 L146.756329,47.5291806 L145.885891,47.5291806 L145.885891,52.2036107 Z M153.102108,49.8663957 C153.102108,48.379077 154.13166,47.4183246 155.479436,47.4183246 C156.817852,47.4183246 157.529178,48.406791 157.529178,49.6077315 C157.529178,49.7278256 157.510459,49.8571577 157.49174,49.9864897 L154.047424,49.9864897 C154.094221,50.9934322 154.824267,51.5384744 155.675986,51.5384744 C156.181402,51.5384744 156.696178,51.3260003 157.07056,50.9934322 L157.454302,51.6493305 C156.995684,52.0650407 156.274998,52.3144668 155.619829,52.3144668 C154.13166,52.3144668 153.102108,51.2520963 153.102108,49.8663957 Z M154.075502,49.3398294 L156.611942,49.3398294 C156.583863,48.5361231 156.078447,48.1111749 155.460716,48.1111749 C154.75875,48.1111749 154.206536,48.5638371 154.075502,49.3398294 Z M158.315381,49.8663957 C158.315381,48.379077 159.344932,47.4183246 160.692708,47.4183246 C162.031125,47.4183246 162.742451,48.406791 162.742451,49.6077315 C162.742451,49.7278256 162.723732,49.8571577 162.705013,49.9864897 L159.260696,49.9864897 C159.307494,50.9934322 160.037539,51.5384744 160.889259,51.5384744 C161.394675,51.5384744 161.909451,51.3260003 162.283833,50.9934322 L162.667575,51.6493305 C162.208956,52.0650407 161.488271,52.3144668 160.833102,52.3144668 C159.344932,52.3144668 158.315381,51.2520963 158.315381,49.8663957 Z M159.288775,49.3398294 L161.825215,49.3398294 C161.797136,48.5361231 161.29172,48.1111749 160.673989,48.1111749 C159.972023,48.1111749 159.419809,48.5638371 159.288775,49.3398294 Z" id="Соединяет-в-себе-луч" fill="#FFFFFF" opacity="0.75"></path>
                </g>
            </g>
        </g>
    </g>
</svg>